# xmcd
#
# Track frame offsets:
#	150
#	17556
#	31666
#	50349
#	63191
#	73575
#	88113
#	109401
#	124886
#	144374
#	161003
#	183206
#	195686
#	209323
#
# Disc length: 2897 seconds
#
# Revision: 1
# Processed by: cddbd v1.5.2PL0 Copyright (c) Steve Scherf et al.
# Submitted via: audiograbber 1.83.01
#
DISCID=be0b4f0e
DTITLE=CPeX - Olraait!
DYEAR=2011
DGENRE=Rock
TTITLE0=Ik Kwam Den Duvel Tegen
TTITLE1=Vuile Hypocriet
TTITLE2=Sympathieke Mensen
TTITLE3=Ambrayage
TTITLE4=Kas
TTITLE5=Gekookte Patatten
TTITLE6=Edde Gij Da Na Express Gedaan
TTITLE7=Bloemen
TTITLE8=Zegt Dat Ni Waar Is
TTITLE9=Ik Heb In Iet Gebeten
TTITLE10=Brief Uit De Thaise Jail
TTITLE11=Boerinnenbinnedoen
TTITLE12=Frits En Freddy
TTITLE13=Sexy Robot
EXTD=
EXTT0=
EXTT1=
EXTT2=
EXTT3=
EXTT4=
EXTT5=
EXTT6=
EXTT7=
EXTT8=
EXTT9=
EXTT10=
EXTT11=
EXTT12=
EXTT13=
PLAYORDER=
